<?xml version="1.0" encoding="utf-8"?>
<!-- Generator: Adobe Illustrator 27.0.1, SVG Export Plug-In . SVG Version: 6.00 Build 0)  -->
<svg version="1.1" xmlns="http://www.w3.org/2000/svg" xmlns:xlink="http://www.w3.org/1999/xlink" x="0px" y="0px"
	 viewBox="0 0 500 210.79" style="enable-background:new 0 0 500 210.79;" xml:space="preserve">
<style type="text/css">
	.st0{fill:#E5BBC1;}
	.st1{fill:#FFFFFF;}
	.st2{fill:#BF7BA0;}
</style>
<g id="BACKGROUND">
</g>
<g id="OBJECTS">
	<g>
		<g>
			<path class="st0" d="M210.49,126.13c3.02,5.25,3.28,11.97,0.74,17.45c-1.7,1.31-3.81,2.14-5.85,2.87
				c-4.53,1.61-9.51,3.01-14.08,1.51c-0.18,3.51-1.7,6.81-4.01,9.42c-36.73,2.13-73.56,0.39-110.31-1.37
				c-12.76-0.61-25.59-1.22-38.07-4c-2-0.44-4.12-1.02-5.47-2.56c-2.97-3.38-0.12-9.01,3.93-10.98c4.05-1.96,8.79-1.74,13.16-2.82
				c-0.09-11.02,11.76-18.29,22.58-20.37c3.77-0.73,7.9-1.07,11.25,0.81c0.49,0.28,0.94,0.62,1.35,1.01
				c-0.72-4.17-0.19-8.45,2.2-11.89c3.91-5.62,13.71-6.7,17.36-0.9c-2.55-7.03-2.08-15.6,2.94-21.14
				c5.02-5.54,15.09-6.31,19.69-0.41c-1.63-11.25,6.9-22.09,17.39-26.48c4.3-1.79,8.99-2.69,13.65-2.62h0.01
				c4.36,1.92,8.21,4.99,10.84,8.98c6.21,9.43,5.06,23.05-2.66,31.29c7.04-1.81,15.11,2.28,17.82,9.02c0.26-1.31,0.99-2.49,1.87-3.5
				c4.61-5.26,13.34-5.42,19.15-1.52c5.81,3.89,8.95,10.87,9.86,17.81c-6.09-4.36-15.15-3.97-20.85,0.9
				C201.3,116.95,207.34,120.65,210.49,126.13z"/>
		</g>
		<g>
			<g>
				<path class="st0" d="M63.22,125c-8.22-0.09-16.45,0.34-24.62,1.28c-4.01,0.46-8.02,1.05-12.06,0.94
					c-1.29-0.03-2.64-0.15-3.71-0.86c-1.67-1.1-2.23-3.41-1.72-5.33c0.51-1.93,1.9-3.51,3.44-4.77c3.83-3.14,9.74-4.55,13.68-1.56
					c0.65-4.45,4.73-7.82,9.17-8.54c1.13,0.64,2.29,1.25,2.83,1.81c2.45,2.54,3.37,6.21,1.51,9.43c1.46-2.23,4.69-1.45,6.52-0.08
					C60.76,119.19,62.49,121.97,63.22,125z"/>
			</g>
			<g>
				<path class="st1" d="M71.28,125.24c-2.69-0.14-5.37-0.22-8.06-0.24c-0.73-3.03-2.46-5.81-4.96-7.68
					c-1.83-1.37-5.06-2.15-6.52,0.08c1.86-3.22,0.94-6.89-1.51-9.43c-0.54-0.56-1.7-1.17-2.83-1.81c0.88-0.15,1.78-0.19,2.67-0.11
					c5.87,0.51,8.42,5.41,13.11,7.81C68.75,116.7,72.99,116.99,71.28,125.24z"/>
			</g>
		</g>
		<g>
			<path class="st0" d="M335.21,165.4c-3.45,0.5-7,0.6-10.48,0.66c-1.46,0.03-2.98,0.06-4.26,0.75c-1.34,0.71-2.23,2.02-3.25,3.15
				c-6.53,7.19-17.86,6.45-27.44,4.83c-8.85-1.49-17.62-3.33-26.4-5.23c-4.21-0.92-8.83-1-13.15-1.9
				c-15.12,1.52-30.26,2.02-45.25,0.03c0.65,0.05,1.27,0.08,1.88,0.07c19.08-0.27,38.47-2.79,57.43-4.89
				c2.84-0.31,5.83-0.69,8.15-2.37c2.09-1.52,3.35-3.89,4.89-5.97c4.37-5.89,11.7-9.65,19.02-9.11c7.31,0.53,14.25,5.65,16.34,12.68
				c5.75-3.25,13.52-2.81,18.53,1.48C333.03,161.13,334.38,163.17,335.21,165.4z"/>
		</g>
		<g>
			<path class="st1" d="M242.74,118.13c-1.13-0.3-2.38-0.96-2.44-2.1c-0.04-0.74,0.46-1.42,0.98-1.97
				c2.79-2.98,7.22-4.42,11.17-3.62c1.07,0.22,2.12,0.59,3.22,0.59c2.6,0.01,4.78-1.94,6.8-3.62c2.71-2.24,5.83-4.26,9.3-4.7
				c3.48-0.44,7.33,1.1,8.49,4.25c1.3,3.55-1.31,7.72-4.83,9.55c-3.53,1.83-7.66,1.86-11.57,1.64
				C257.27,117.78,249.03,119.8,242.74,118.13z"/>
		</g>
		<g>
			<path class="st2" d="M45.78,144.8c-3.65-0.87-8.42,1.59-7.99,5.32c-4.16-3.31-8.67-6.77-13.98-7.11
				c-5.3-0.34-11.19,4.1-10.18,9.32c0.78,4.04,5.1,6.4,9.15,7.13c6.95,1.26,14.03-0.6,21.08-1.08c17.42-1.19,35.85,5.9,51.89-1
				c-6.6-7-19.4-2.24-27.64-2.62C58.81,154.35,54.08,146.8,45.78,144.8z"/>
		</g>
		<g>
			<path class="st0" d="M259.73,149.45c1.64-2.75,4.17-4.95,7.12-6.19c-3.38,3.53-6.19,7.62-8.27,12.05
				c-1.93-2.22-2.55-5.33-4.43-7.59c-1.64-1.97-4.01-3.02-6.42-3.7c-1.59-0.45-3.78-0.4-5.16-1.24c1.77-1.09,5.34-0.59,7.31-0.31
				c1.93,0.27,3.64,0.93,5.21,2.1C255.62,144.96,260.06,148.9,259.73,149.45z"/>
		</g>
		<g>
			<path class="st1" d="M148.73,104.07c3.72-1.86,8.24-2.06,12.11-0.55c3.88,1.52,7.05,4.73,8.52,8.62
				c-2.67-3.67-7.39-5.41-11.93-5.52s-8.98,1.2-13.31,2.59c1.22-3.78,0.78-8.07-1.19-11.53c-0.9-1.59-2.12-2.99-3.55-4.13
				c-0.97-0.78-2.55-1.28-3.26-2.21c1.98-0.86,5.43,0.53,7.06,1.7C146.72,95.58,147.94,100.03,148.73,104.07z"/>
		</g>
		<g>
			<path class="st2" d="M252.96,157.33c-7.74,0.47-15.47,1.22-23.18,2.16c-12.45-4.38-26.43-3.12-39.76-2.27
				c-0.91,0.06-1.82,0.11-2.73,0.16c2.31-2.61,3.83-5.91,4.01-9.42c4.57,1.5,9.55,0.1,14.08-1.51c2.04-0.73,4.15-1.56,5.85-2.87
				c-0.11,0.25-0.23,0.49-0.35,0.73c5.08,0,9.63-4.84,9.31-9.9c7.44,3.83,12.72,11.56,13.58,19.87
				C239.88,150.92,248.19,152.24,252.96,157.33z"/>
		</g>
		<g>
			<path class="st1" d="M204.32,145.93c-3.83-1.8-7.64,0.02-11.01,1.8c-1.69-2.51-2.43-5.43-4.59-7.78
				c-1.92-2.09-4.38-3.74-7.18-4.34c-5.72-1.23-12.46,3.34-12.25,9.43c-0.02-0.7-5.6-0.49-6.19-0.42
				c-3.93,0.46-7.65,2.37-10.35,5.26c-2.23,2.39-4.72,6.74-0.95,9.01c1.02,0.61,2.27,0.61,3.44,0.59
				c18.21-0.37,36.41-1.4,54.55-3.09C210.39,152.18,208.05,147.68,204.32,145.93z"/>
		</g>
		<g>
			<path class="st1" d="M354.7,146.97c-0.56-5.14-4.3-9.41-8.5-12.43c-8.24-5.91-18.96-8.25-28.91-6.29
				c-5.63,1.11-10.97,3.59-15.52,7.09c-0.74-0.27-1.5-0.49-2.26-0.67c-10.32-2.51-21.54-1.19-31,3.64
				c-6.75-7.06-17-10.59-26.66-9.18c5.45-5.64,6.42-15.09,2.22-21.72c-4.21-6.62-13.17-9.77-20.59-7.24
				c0.37-8.61-0.05-18.86-7.3-23.52c-4.5-2.88-10.47-2.54-15.39-0.46c-4.92,2.08-9.02,5.68-13.02,9.23
				c1.84-10.32-3.51-21.31-12.32-26.99c-4.89-3.15-10.66-4.71-16.49-4.77c4.36,1.92,8.21,4.99,10.84,8.98
				c6.21,9.43,5.06,23.05-2.66,31.29c7.04-1.81,15.11,2.28,17.82,9.02c0.26-1.31,0.99-2.49,1.87-3.5
				c4.61-5.26,13.34-5.42,19.15-1.52c5.81,3.89,8.95,10.87,9.86,17.81c-6.09-4.36-15.15-3.97-20.85,0.9
				c6.32,0.31,12.36,4.01,15.51,9.49c2.5,4.35,3.1,9.72,1.79,14.56c-1.26,4.49-6.9,5.76-6.9,5.76c7.34,0.24,10.91-4.05,10.91-4.05
				l0,0c2.46-1.87,4.1-4.88,3.9-7.99c7.44,3.83,12.72,11.56,13.58,19.87c6.11-3.36,14.42-2.04,19.19,3.05
				c-7.74,0.47-15.47,1.22-23.18,2.16c1.38,0.48-17.98,4.05-28.44,7.67c1.21,0.19,2.42,0.37,3.63,0.53
				c0.65,0.05,1.27,0.08,1.88,0.07c19.08-0.27,38.47-2.79,57.43-4.89c2.84-0.31,5.83-0.69,8.15-2.37c2.09-1.52,3.35-3.89,4.89-5.97
				c4.37-5.89,11.7-9.65,19.02-9.11c7.31,0.53,14.25,5.65,16.34,12.68c5.75-3.25,13.52-2.81,18.53,1.48
				c1.81,1.55,3.16,3.59,3.99,5.82c3.19-0.44,6.3-1.22,9.21-2.61C350.47,159.89,355.43,153.64,354.7,146.97z"/>
		</g>
		<g>
			<path class="st1" d="M219.21,103.9l3.43-5.56l0.43,0.26l-0.49,0.79c3.63-5.39,4.43-12.74,1.76-18.67
				c-3.16-7-11-11.69-18.68-11.16c-7.66,0.54-14.78,6.29-16.93,13.66l-0.49-0.1c0.71-6.76,0.45-11.79-0.84-16.29
				c-1.64-5.71-5.13-10.32-9.58-12.64c-5.03-2.63-11.39-1.99-15.11,1.51l-0.34-0.36c3.87-3.64,10.47-4.31,15.69-1.59
				c4.57,2.38,8.15,7.1,9.83,12.95c1.18,4.11,1.51,8.64,1.05,14.48c2.78-6.64,9.51-11.61,16.7-12.12
				c7.87-0.56,15.93,4.26,19.17,11.45c3.24,7.19,1.51,16.42-4.11,21.94L219.21,103.9z"/>
		</g>
		<g>
			<path class="st1" d="M272.13,112.8l-0.05-0.5c0.19-0.02,0.37-0.05,0.55-0.07c0.79-0.17,1.52-0.62,2.02-1.25l0.39,0.31
				c-0.17,0.22-0.37,0.42-0.59,0.6c3.34-0.78,5.23-2.22,5.63-4.29c0.33-1.72-0.56-3.69-2.37-5.26c-3.08-2.68-7.82-3.69-12.37-2.63
				c-3.86,0.9-7.64,3.14-11.23,6.67c-0.44,0.43-0.98,0.96-1.68,1.04c-0.51,0.06-1-0.15-1.42-0.33l-0.12-0.05
				c-4.31-1.79-9.61-0.74-12.91,2.56l-0.35-0.35c3.43-3.44,8.97-4.54,13.45-2.67l0.12,0.05c0.41,0.17,0.8,0.34,1.18,0.29
				c0.53-0.06,0.99-0.5,1.38-0.9c3.65-3.6,7.51-5.89,11.46-6.8c4.7-1.09,9.61-0.04,12.81,2.74c1.95,1.69,2.89,3.84,2.53,5.73
				c-0.5,2.65-3.14,4.34-7.85,5.03C272.53,112.76,272.33,112.79,272.13,112.8z"/>
		</g>
		<g>
			<path class="st1" d="M261.02,138.27l-0.38-0.33c5.76-6.73,13.71-11.41,22.39-13.16c4.1-0.83,7.5-0.78,10.4,0.15
				c5.83,1.87,9.65,7.14,13.37,12.84l-0.42,0.27c-3.67-5.62-7.42-10.82-13.1-12.64c-2.82-0.9-6.14-0.95-10.15-0.14
				C274.56,127.01,266.71,131.62,261.02,138.27z"/>
		</g>
		<g>
			<path class="st1" d="M152.79,157.38c-3.01-0.19-5.93-1.18-8.45-2.85c-0.67-0.44-1.4-1.01-1.76-1.82
				c-0.34-0.77-0.35-1.7-0.03-2.86c1.3-4.58,5.71-7.27,9.41-8.26c4.12-1.1,8.41-0.78,12.56-0.44c-0.21-4.42,4.13-7.61,7.86-9.53
				c2.01-1.03,4.15-1.91,6.21-1.3c1.7,0.5,2.93,1.94,3.7,2.98c2.41,3.25,3.85,7.16,4.15,11.18l0.18-0.75l0.49,0.11l-1.15,4.94
				l0.04-2.36c0.09-4.58-1.37-9.14-4.1-12.82c-0.73-0.98-1.88-2.34-3.44-2.8c-1.89-0.56-3.92,0.28-5.84,1.26
				c-3.67,1.89-7.96,5.04-7.56,9.33l0.03,0.3l-0.3-0.02c-4.2-0.35-8.54-0.71-12.68,0.4c-3.56,0.95-7.81,3.53-9.05,7.91
				c-0.29,1.04-0.29,1.86,0,2.52c0.31,0.7,0.98,1.21,1.58,1.61c2.44,1.62,5.28,2.58,8.2,2.77L152.79,157.38z"/>
		</g>
		<g>
			<path class="st1" d="M69.51,122.44l-0.08-0.49c1.53-0.26,2.81-1.45,3.41-3.17c0.7-1.99,0.35-4.16-0.88-5.54
				c-2.56-2.88-7.43-2.44-10.08-0.12l-0.96,0.83l0.57-1.14c1.33-2.66,0.37-6.31-2.1-7.98c-2.47-1.66-6.21-1.18-8.18,1.06l-0.38-0.33
				c2.16-2.46,6.12-2.97,8.83-1.15c2.45,1.65,3.52,4.96,2.62,7.74c3.18-2.18,7.68-1.92,10.04,0.74c1.35,1.51,1.73,3.88,0.97,6.04
				C72.65,120.83,71.23,122.14,69.51,122.44z"/>
		</g>
		<g>
			<path class="st1" d="M348.57,148.65l-0.37-0.34c2.32-2.56,3.02-6.7,1.77-10.56c-1-3.1-3.13-6.09-6.51-9.13
				c-5.91-5.32-12.98-8.59-19.93-9.21c-7.79-0.69-15.38,1.99-20.3,7.18c-0.18,0.19-0.36,0.39-0.55,0.59
				c-1.4,1.51-2.84,3.07-4.87,3.21c-0.94,0.06-1.84-0.21-2.71-0.47l-0.35-0.1c-10.83-3.18-23.68,2.03-29.25,11.85l-0.44-0.25
				c5.67-10.02,18.78-15.33,29.82-12.09l0.35,0.1c0.83,0.25,1.69,0.5,2.53,0.45c1.83-0.12,3.21-1.61,4.54-3.05
				c0.18-0.2,0.37-0.4,0.55-0.59c5.02-5.3,12.76-8.04,20.71-7.33c7.05,0.63,14.24,3.94,20.22,9.33c3.45,3.1,5.62,6.16,6.65,9.35
				C351.75,141.62,351.01,145.96,348.57,148.65z"/>
		</g>
		<g>
			<path class="st1" d="M151.38,104.03l-0.48-0.13c1.02-3.89-0.87-8.47-4.5-10.91c-3.33-2.23-7.87-2.73-12.17-1.34l-0.15-0.48
				c4.44-1.43,9.15-0.91,12.6,1.4C150.48,95.13,152.46,99.95,151.38,104.03z"/>
		</g>
		<g>
			<path class="st1" d="M219.8,119.93c-2.3-7-10.09-11.8-17.38-10.7c-2.17,0.33-3.87,1.08-5.03,2.24c-1.39,1.38-1.92,3.43-1.29,4.99
				l-0.46,0.19c-0.72-1.77-0.15-4,1.4-5.54c1.25-1.23,3.03-2.03,5.31-2.38c7.51-1.14,15.56,3.82,17.93,11.04L219.8,119.93z"/>
		</g>
		<g>
			<path class="st0" d="M87.56,122.06l-0.27-0.19c-6.01-4.36-8.42-12.84-5.61-19.72c0.31-0.76,0.77-1.69,1.59-2.25
				c0.87-0.59,1.96-0.64,3.01-0.61c5.06,0.16,10.15,1.75,14.42,4.49c-2.42-6.38-2.97-11.76-1.68-16.44
				c1.46-5.3,6.42-10.73,12.78-10.33c4.94,0.31,9.29,3.98,12.98,10.92c-1.89-7.11-2.22-13.36-1.01-19.04
				c1.64-7.75,6.57-14.3,12.85-17.08c7.13-3.16,15.92-1.05,20.01,4.8l-0.41,0.29c-3.95-5.66-12.47-7.7-19.39-4.63
				c-6.14,2.72-10.95,9.13-12.57,16.73c-1.34,6.31-0.75,13.35,1.79,21.52l-0.47,0.18c-3.85-8.42-8.5-12.85-13.81-13.18
				c-5.85-0.37-10.83,4.78-12.26,9.96c-1.31,4.75-0.67,10.26,1.95,16.86l0.3,0.76l-0.68-0.46c-4.32-2.96-9.58-4.68-14.81-4.84
				c-0.96-0.03-1.96,0.01-2.72,0.52c-0.7,0.47-1.1,1.29-1.4,2.02c-2.64,6.46-0.37,14.7,5.18,18.93l2.06-5.52l0.47,0.17L87.56,122.06
				z"/>
		</g>
		<g>
			<path class="st0" d="M20.03,132.28c-1.04,0-2.09-0.09-3.13-0.31c-3.8-0.78-7.87-3.81-8.29-8.1c-0.31-3.16,1.44-6.59,4.69-9.18
				c2.77-2.21,5.93-3.4,8.91-3.32c3.09,0.07,5.94,1.54,7.54,3.82c0.01-3.83,2.64-7.54,6.32-8.71c4.01-1.28,8.72,0.61,10.74,4.31
				l-0.44,0.24c-1.9-3.49-6.36-5.28-10.15-4.07c-3.79,1.21-6.39,5.25-5.92,9.19l0.16,1.36l-0.63-1.22
				c-1.35-2.61-4.35-4.35-7.64-4.42c-2.87-0.08-5.91,1.07-8.59,3.21c-3.12,2.48-4.8,5.75-4.5,8.74c0.4,4.04,4.28,6.91,7.9,7.66
				c3.93,0.81,7.97-0.17,11.76-1.34l0.15,0.48C26.05,131.5,23.04,132.28,20.03,132.28z"/>
		</g>
		<g>
			<path class="st0" d="M295.83,186.28c-1.13,0-2.33-0.07-3.6-0.2c-5.55-0.58-11.01-1.89-16.22-3.89c-1.82-0.7-3.64-1.5-5.39-2.27
				c-2.61-1.15-5.32-2.34-8.07-3.23c-7.18-2.31-14.87-2.63-22.22-0.93l-0.11-0.49c7.44-1.72,15.21-1.39,22.48,0.94
				c2.78,0.89,5.5,2.09,8.12,3.24c1.75,0.77,3.56,1.57,5.37,2.27c5.17,1.99,10.58,3.29,16.09,3.86c6.45,0.67,10.97-0.37,13.84-3.19
				c4.81-4.73,3.39-12.68,1.35-18.52l0.47-0.17c2.09,5.97,3.53,14.12-1.47,19.04C304.07,185.12,300.57,186.28,295.83,186.28z"/>
		</g>
		<g>
			<path class="st0" d="M185.46,105.99l-0.48-0.15c1.68-5.33-0.98-11.79-5.93-14.39c-4.95-2.6-11.78-1.14-15.22,3.27l-0.39-0.31
				c3.58-4.59,10.69-6.12,15.85-3.41C184.45,93.72,187.21,100.44,185.46,105.99z"/>
		</g>
		<g>
			<path class="st2" d="M88.24,167.5l-0.17-0.47c5.06-1.85,10.16-3.83,15.15-5.88c2.89-1.19,4.29-2.62,4.18-4.25
				c-0.07-1.03-0.81-1.94-1.35-2.53c-5.5-5.96-14.43-6.48-23.11-6.49c-4.56-0.01-10.24-0.02-14.53,2.84l-0.19,0.13l-0.14-0.19
				c-3.29-4.28-7.68-6.91-12.04-7.22c-5.1-0.36-9.94,2.82-11.04,7.23l-0.49-0.12c1.15-4.64,6.23-7.98,11.56-7.61
				c4.44,0.31,8.9,2.94,12.26,7.23c4.39-2.82,10.05-2.82,14.62-2.8c8.79,0.02,17.85,0.55,23.48,6.66c0.6,0.65,1.4,1.65,1.49,2.84
				c0.13,1.87-1.38,3.47-4.49,4.75C98.41,163.67,93.31,165.65,88.24,167.5z"/>
		</g>
		<g>
			<path class="st2" d="M237.97,155.83l-0.08-0.8c-0.36-3.56-0.78-7.58-2.72-10.87c-1.8-3.04-5.54-5.6-9.22-4.61
				c-1.35,0.36-2.55,1.17-3.4,2.27l-0.4-0.3c0.91-1.19,2.21-2.06,3.67-2.45c3.92-1.05,7.89,1.64,9.78,4.84
				c1.85,3.13,2.35,6.87,2.7,10.27l1-1.83l0.44,0.24L237.97,155.83z"/>
		</g>
	</g>
	<g>
		<g>
			<g>
				<path class="st1" d="M436.5,81.85c-0.63,1.37-2.1,2.12-3.51,2.66c-7.27,2.8-15.3,2.62-23.07,2.08c-3.86-0.27-7.72-0.62-11.57-1
					c-0.2-2.65-0.68-5.24-1.71-7.68c-2.05-4.92-6.92-9.08-12.22-8.55c6.89-7.71,9.31-19.37,5.33-28.91
					c-3.99-9.54-14.55-16.12-24.8-14.75c-10.24,1.38-18.9,11.12-18.34,21.44c-5.72-4.18-14.63-3.04-19.1,2.46
					c-0.58-6.43-4.41-12.76-10.4-15.17c-0.93-0.37-1.9-0.63-2.89-0.77c0.07-0.05,0.14-0.09,0.22-0.13
					c6.1-3.18,14.33-1.45,18.64,3.92c0.7-4.32,3.08-8.2,5.96-11.49c12.02-13.75,33.95-17.59,49.92-8.74
					c15.98,8.86,24.35,29.48,19.06,46.97c5.53-2.8,12.38-2.82,17.92-0.05c5.55,2.77,9.65,8.25,10.74,14.35
					C436.89,79.61,436.98,80.81,436.5,81.85z"/>
			</g>
			<g>
				<path class="st0" d="M398.35,85.59c-11.55-1.15-23.08-2.59-34.68-3c-14.61-0.52-29.24,0.59-43.86,0.86
					c-13.5,0.24-27.02-0.23-40.48-1.43c-2.08-0.18-4.25-0.41-6.05-1.49c-1.79-1.09-3.1-3.28-2.47-5.29
					c1.23-3.97,17.58-1.69,20.1-6.81c2.64-5.33-3.54-11.36,3.91-15.9c3.56-2.16,8.03-1.85,12.17-1.47
					c-1.92-6.52,1.27-14.15,7.23-17.4c0.99,0.14,1.96,0.4,2.89,0.77c5.99,2.41,9.82,8.74,10.4,15.17c4.47-5.5,13.38-6.64,19.1-2.46
					c-0.56-10.32,8.1-20.06,18.34-21.44c10.25-1.37,20.81,5.21,24.8,14.75c3.98,9.54,1.56,21.2-5.33,28.91
					c5.3-0.53,10.17,3.63,12.22,8.55C397.67,80.35,398.15,82.94,398.35,85.59z"/>
			</g>
			<g>
				<path class="st2" d="M299.39,74.78c4.86,1.32,9.11,4.73,11.46,9.18c-0.6-1.14-25.13,0.34-28.05,0.16
					c-5.72-0.34-13.71,0.84-16.03-5.64c-5.14-14.35,13.79-13.43,18.2-1.79C289.5,74.47,294.39,73.42,299.39,74.78z"/>
			</g>
			<g>
				<path class="st1" d="M372.7,68.89c2.92-1,6.02-1.51,9.11-1.49c-1.43-1.32-3.44-1.88-5.39-1.89c-1.56,0-3.62,1.04-5.05,0.84
					c-2.25-0.32-1.14-0.18-2.84-1.99c0,0-4.28-10.58-13.95-10.58c8.86,3.52,13.41,12.53,13.92,18.02
					C369.51,70.31,371.01,69.47,372.7,68.89z"/>
			</g>
			<g>
				<path class="st0" d="M415.85,72.45c-2.02-1.73-9.43,2.06-11.17,3.17c-3.11,1.99-4.63,5.05-7.17,7.38
					C391.22,74.63,409.38,66.9,415.85,72.45z"/>
			</g>
		</g>
		<g>
			<g>
				<path class="st0" d="M411.8,100.56c-13.36-0.02-27.02-2.86-39.53,1.59c-1.31-2.81-1.03-6.3,0.72-8.86
					c1.79-2.61,4.14-3.43,5.9-5.53c1.4,0.91,3.03,1.95,4.69,3.47c-0.66-4.04,4.12-7.59,8.03-6.42c3.93,1.18,6.09,5.88,5.22,9.87
					c3.51-2.63,8.82-1.34,11.96,1.73C410.01,97.62,410.99,99.03,411.8,100.56z"/>
			</g>
			<g>
				<path class="st1" d="M423.42,99.12c-1.17,0.72-2.56,0.93-3.93,1.08c-2.55,0.27-5.11,0.37-7.69,0.35
					c-0.81-1.53-1.79-2.94-3.01-4.15c-3.14-3.07-8.45-4.36-11.96-1.73c0.88-4-1.29-8.69-5.22-9.87c-3.92-1.18-8.7,2.38-8.03,6.42
					c-1.66-1.52-3.29-2.56-4.69-3.47c0.28-0.34,0.55-0.72,0.79-1.14c2.51-4.29,2.13-6.97,8.15-8.17c1.84-0.36,3.76-0.46,5.56,0.01
					c5.35,1.39,8.17,7.08,10.32,12.17c0.71-2.96,4.89-3.83,7.54-2.32c2.65,1.51,4.09,4.46,5.36,7.22c0.35-1.55,2.12-2.35,3.71-2.5
					c2.04-0.2,4.54,0.66,4.91,2.68C425.46,97.04,424.58,98.4,423.42,99.12z"/>
			</g>
		</g>
		<g>
			<path class="st1" d="M403.14,62.6l-0.43-0.25l1.58-3l0.05,0.03c6.31-12.77,6.87-30.92-4.48-42.24
				c-7.91-7.9-20.65-10.98-32.43-7.85c-10.57,2.81-20.42,10.44-27.02,20.95l-0.42-0.27c6.66-10.62,16.62-18.33,27.32-21.17
				c11.96-3.17,24.88-0.04,32.92,7.98C412.66,29.19,411.01,49.65,403.14,62.6z"/>
		</g>
		<g>
			<path class="st1" d="M432.96,81.12c-0.14,0-0.29,0-0.43-0.01l0.04-0.5c1.78,0.13,3.64-0.61,5.06-2.02
				c1.42-1.41,2.17-3.25,2.06-5.05c-0.09-1.38-0.62-2.86-1.61-4.51c-3.17-5.23-8.91-8.86-14.99-9.48
				c-6.09-0.61-12.44,1.8-16.58,6.29l-0.37-0.34c4.25-4.61,10.76-7.08,17-6.45c6.24,0.63,12.13,4.35,15.37,9.71
				c1.04,1.72,1.59,3.27,1.68,4.74c0.12,1.94-0.68,3.92-2.2,5.43C436.57,80.34,434.76,81.12,432.96,81.12z"/>
		</g>
		<g>
			<path class="st1" d="M401.54,62.12l1.23-4.23l0.35,0.1c3.46-7.26,4.71-15.1,3.51-22.26c-1.43-8.53-6.4-16-13.3-19.99
				c-7.37-4.26-16.82-4.18-23.51,0.2l-0.27-0.42c6.84-4.49,16.5-4.57,24.03-0.22c7.03,4.07,12.09,11.67,13.54,20.34
				c1.32,7.85-0.26,16.5-4.45,24.34L401.54,62.12z"/>
		</g>
		<g>
			<path class="st1" d="M369.3,67.53l0.11-0.5c0.96-4.39,0.03-8.71-2.48-11.58c-2.81-3.2-7.73-4.12-10.98-2.05l-0.27-0.42
				c3.45-2.19,8.66-1.23,11.62,2.14c2.52,2.87,3.51,7.15,2.69,11.52c3.51-1.68,7.45-3.51,11.59-3.98c4.78-0.54,9.29,1,11.77,4.03
				l-0.39,0.32c-2.38-2.9-6.72-4.38-11.33-3.85c-4.24,0.48-8.3,2.43-11.88,4.15L369.3,67.53z"/>
		</g>
		<g>
			<path class="st1" d="M433.29,102.61l-0.28-0.41c0.68-0.47,1.34-1,1.59-1.72c0.21-0.62,0.09-1.32-0.06-1.99
				c-0.44-1.86-1.63-5.23-4.58-6.86c-2.74-1.5-6.04-1.05-9.25-0.62l-0.64,0.09c-0.64,0.08-1.29,0.1-1.74-0.33
				c-0.29-0.28-0.4-0.68-0.49-1.02l-0.03-0.11c-0.99-3.65-4.72-5.64-7.88-6.3c-1.75-0.36-4.26-0.54-6.27,0.68
				c-1.71,1.04-2.91,3.44-1.99,5.37l-0.45,0.22c-1.08-2.24,0.29-4.87,2.18-6.01c2.15-1.31,4.79-1.13,6.63-0.75
				c3.3,0.68,7.21,2.79,8.26,6.66l0.03,0.11c0.08,0.31,0.16,0.61,0.36,0.79c0.3,0.29,0.81,0.26,1.33,0.19l0.64-0.09
				c3.28-0.44,6.67-0.9,9.55,0.68c3.12,1.72,4.37,5.23,4.83,7.18c0.18,0.74,0.3,1.53,0.05,2.27
				C434.78,101.5,434.05,102.1,433.29,102.61z"/>
		</g>
		<g>
			<path class="st1" d="M339.69,38.37c-0.22,0-0.53-0.12-0.87-0.56c-3.6-4.63-7.51-7.53-11.63-8.61c-4.39-1.15-10.2,0.02-12.83,4.46
				l-0.43-0.25c2.75-4.65,8.82-5.88,13.38-4.69c4.23,1.1,8.23,4.06,11.9,8.78c0.05,0.06,0.1,0.12,0.15,0.17
				c0.03-0.21,0.19-0.3,0.31-0.31c0.23-0.01,0.45,0.21,0.51,0.44c0.06,0.21-0.03,0.41-0.22,0.5
				C339.9,38.34,339.81,38.37,339.69,38.37z M339.39,37.69c0.09,0.09,0.19,0.16,0.28,0.17c0-0.01-0.01-0.01-0.02-0.01
				c0.02,0.01,0.07,0.02,0.12-0.01c0.06-0.03,0.08-0.08,0.09-0.1L339.39,37.69z"/>
		</g>
		<g>
			<path class="st0" d="M324.68,49.49c-0.26-3.93,2.46-7.91,6.62-9.68c3.28-1.4,7.28-1.54,11.88-0.42c1-5.14,4.94-9.89,10.85-13.08
				c6.85-3.7,14.5-4.35,20.46-1.75c6.89,3.01,11.02,10.78,9.2,17.32l-0.48-0.13c1.76-6.31-2.24-13.81-8.91-16.73
				c-5.82-2.54-13.3-1.9-20.02,1.73c-5.88,3.17-9.76,7.91-10.65,12.99L343.58,40l-0.26-0.06c-4.61-1.15-8.58-1.04-11.83,0.34
				c-3.91,1.66-6.56,5.53-6.32,9.19L324.68,49.49z"/>
		</g>
		<g>
			<path class="st0" d="M275.3,68.14l-0.43-0.25c1.1-1.88,3.1-3.18,5.48-3.57c2.15-0.35,4.24,0.1,5.84,1.24
				c-0.62-4.79-0.9-10.8,1.71-16.01c2.44-4.88,8.35-8.93,14.03-7.25c4.87,1.44,7.66,6.29,9.84,10.98l0.01-0.3l0.25-0.01l0.25,0.01
				l-0.07,2.49l-0.45-0.99c-2.2-4.88-4.97-10.2-9.98-11.69c-5.42-1.61-11.09,2.29-13.44,6.99c-2.65,5.31-2.24,11.51-1.58,16.32
				l0.09,0.66l-0.5-0.44c-1.53-1.33-3.69-1.88-5.92-1.51C278.19,65.18,276.32,66.39,275.3,68.14z"/>
		</g>
		<g>
			<path class="st0" d="M370.73,107.3c-1.86,0-3.72-0.3-5.11-1.5c-2.7-2.34-2.12-6.72-0.34-10.01c1.39-2.58,3.08-4.38,5.02-5.35
				c2.43-1.21,5.36-0.96,7.12,0.61l-0.33,0.37c-1.62-1.44-4.32-1.66-6.57-0.54c-1.84,0.92-3.46,2.65-4.8,5.14
				c-1.68,3.12-2.26,7.24,0.23,9.4c1.76,1.53,4.43,1.47,6.79,1.29c5.77-0.43,11.61-1.07,17.35-1.88l0.07,0.5
				c-5.75,0.82-11.59,1.45-17.38,1.89C372.11,107.26,371.42,107.3,370.73,107.3z"/>
		</g>
		<g>
			<path class="st2" d="M318.32,86.18l-0.08-0.54c-0.75-4.81-2.44-8.3-5.03-10.37c-2.77-2.21-6.83-2.98-11.14-2.1
				c-3.89,0.79-7.45,2.71-10.89,4.55l-0.24-0.44c3.47-1.87,7.06-3.8,11.03-4.6c4.45-0.91,8.66-0.11,11.55,2.2
				c2.6,2.07,4.32,5.49,5.12,10.15l0.19-0.22l0.38,0.32L318.32,86.18z"/>
		</g>
		<g>
			<path class="st2" d="M269.33,79.83c-2.47,0-4.96-1.09-6.53-2.99c-2.06-2.47-2.48-6.21-1.04-9.08c0.55-1.1,1.32-1.99,2.21-2.6
				c1.71-1.15,4.16-1.37,6.73-0.61c4.34,1.29,7.97,4.92,9.25,9.25l-0.48,0.14c-1.24-4.18-4.74-7.68-8.91-8.92
				c-2.43-0.72-4.73-0.52-6.31,0.54c-0.83,0.56-1.53,1.39-2.05,2.41c-1.36,2.7-0.96,6.21,0.98,8.54c1.93,2.33,5.31,3.37,8.22,2.53
				l0.14,0.48C270.82,79.73,270.07,79.83,269.33,79.83z"/>
		</g>
	</g>
	<g>
		<g>
			<path class="st0" d="M492.16,167.79c-14.12,4.09-29.24-0.94-44.01-1.37c-10.09-0.29-20.1,1.59-30.11,2.81
				c-14.13,1.71-28.42,2.12-42.62,1.21c-4.95-0.32-11.54-2.9-10.44-7.71c0.53-2.31,2.78-3.77,4.92-4.79
				c4.28-2.05,8.94-3.34,13.68-3.78c-4.55-4.43-3.5-12.63,1.06-17.05c4.56-4.42,11.5-5.57,17.79-4.71
				c1.53-12.21,10.54-22.76,21.82-27.41c2.66,0.74,5.23,2.08,7.63,4.28c5.54,5.09,7.54,13.66,4.86,20.7
				c5.92-3.62,14.09-1.37,18.89,3.62c4.81,5.01,6.85,12.06,7.76,18.92c7.05-4.27,16.92-3.24,22.94,2.43
				C489.83,158.24,491.86,162.96,492.16,167.79z"/>
		</g>
		<g>
			<path class="st1" d="M439.82,142.07c-4.43-6.57-14.57-8.34-20.97-3.67c-3.27-4.72-8.47-7.82-13.93-9.6
				c-0.56-0.18-1.12-0.34-1.68-0.5c-0.24,0.88-0.43,1.78-0.59,2.69c6.68,3.18,12.56,7.69,16.05,14.73
				C424.14,140.43,432.92,138.91,439.82,142.07z"/>
		</g>
		<g>
			<path class="st1" d="M518.25,139.67c-2.77-1.19-5.9-1.09-8.92-0.97c-8,0.31-17.11,2.26-24.83,1.29c0.86-1.15,1.55-2.39,1.95-3.79
				c0.61-2.15,0.47-4.45,0.01-6.63c-1.99-9.45-15.38-21.92-25.18-14.79c-5.22-6.5-12.04-11.01-22.15-12.28
				c-5.11-0.41-10.19,0.52-14.89,2.47c2.66,0.74,5.23,2.08,7.63,4.28c5.54,5.09,7.54,13.66,4.86,20.7
				c5.92-3.62,14.09-1.37,18.89,3.62c4.81,5.01,6.85,12.06,7.76,18.92c7.05-4.27,16.92-3.24,22.94,2.43
				c3.52,3.3,5.55,8.02,5.85,12.85c0.29-0.07,0.6-0.18,0.9-0.26c2.47-0.8,4.95-1.94,6.51-4c1.56-2.08,1.88-5.26,0.13-7.16
				c6.52,0.84,13.35-0.74,18.85-4.37c1.93-1.27,3.83-2.97,4.24-5.26C523.31,143.76,521.03,140.88,518.25,139.67z"/>
		</g>
		<g>
			<g>
				<path class="st1" d="M538,185.13c-0.1,0.7-0.36,1.4-0.89,1.86c-0.55,0.46-1.3,0.59-2,0.69c-8.92,1.3-17.89,1.79-26.9,1.91
					c-1.46-3.89-4.67-7.13-8.6-8.53c-4.71-1.67-10.27-0.61-14.04,2.65c0.03-2.91-2.15-5.7-4.99-6.4c-2.89-0.7-5.78,0.81-7.34,3.22
					c-0.73-4.76-2.27-7.7-4.5-9.34c2.39-0.39,4.9-0.08,7.1,0.94c-0.32-3.59,2.02-7.06,5.18-8.81c6.59-3.66,14.93-0.95,20.78,2.94
					c5.64,3.73,10.66,10.36,18.25,9.4c2.91-0.37,5.83-0.41,8.72,0.17c2.37,0.47,4.73,1.31,6.55,2.89
					C537.15,180.31,538.36,182.74,538,185.13z"/>
			</g>
			<g>
				<path class="st0" d="M508.21,189.58c-23.02,0.32-46.23-1.73-69.01,1.63c-1.15,0.17-2.34,0.36-3.46,0
					c-1.11-0.36-2.09-1.43-1.91-2.57c0.09-0.61,0.47-1.13,0.88-1.6c2.79-3.16,7.05-4.71,11.25-5.08c4.19-0.36,8.4,0.34,12.56,1.06
					c0.05-4.06,2.27-8,5.69-10.17c1.37-0.85,2.93-1.43,4.53-1.67c2.24,1.64,3.78,4.58,4.5,9.34c1.57-2.41,4.45-3.92,7.34-3.22
					c2.84,0.7,5.01,3.49,4.99,6.4c3.77-3.26,9.33-4.31,14.04-2.65C503.54,182.46,506.75,185.69,508.21,189.58z"/>
			</g>
		</g>
		<g>
			<path class="st2" d="M350.82,144.85c-4.71,2.51-7.05,9.08-4.3,13.65c-6.77-3.66-16.46,0.56-18.39,8.01
				c-0.32,1.25-0.31,2.86,0.83,3.48c0.51,0.28,1.12,0.23,1.71,0.25c39.83,1.56,52.77,0.75,65.66,0.9c1.09-2.16,0.51-5.01-1.26-6.66
				c-1.77-1.65-4.57-2.04-6.78-1.04c-0.87,0.39-1.72,1-2.67,0.92c-1.42-0.11-2.24-1.6-3.16-2.69c-3.64-4.35-8.31-2.36-12.1,0.09
				c-0.79-5.12,0.5-8.87-3.47-13.34C363,144.04,356.18,141.99,350.82,144.85z"/>
		</g>
		<g>
			<path class="st1" d="M533.22,150.04l-0.5-0.03c0.5-8.71-8.2-15.82-16.64-17c-8.91-1.25-17.79,2.07-25.63,5l-0.42,0.16l0.09-0.44
				c1.6-8.21-1.04-16.64-6.72-21.47c-6.25-5.31-15.89-5.47-21.49-0.35l-0.37,0.34l-0.04-0.5c-0.67-7.69-6.29-14.67-13.65-16.99
				c-7.36-2.32-15.96,0.19-20.92,6.11l-0.38-0.32c5.08-6.06,13.9-8.64,21.45-6.26c7.39,2.33,13.06,9.25,13.94,16.93
				c5.83-4.95,15.49-4.69,21.78,0.66c5.72,4.87,8.43,13.27,6.97,21.51c7.8-2.91,16.59-6.11,25.46-4.87
				C524.77,133.71,533.75,140.76,533.22,150.04z"/>
		</g>
		<g>
			<path class="st1" d="M534.54,184.04c-1,0-1.98-0.1-2.91-0.2l0.05-0.5c1.8,0.19,3.83,0.4,5.65-0.19c1.6-0.51,3.33-1.95,3.36-3.89
				c0.01-0.9-0.35-1.88-1.09-2.89c-2.72-3.74-7.63-4.87-11.27-5.16c-4.43-0.35-9,0.21-13.22,1.63l-0.21,0.07l-0.09-0.2
				c-1.99-4.19-5.86-7.36-10.37-8.46c-4.51-1.11-9.41-0.1-13.11,2.69l-0.3-0.4c3.83-2.88,8.89-3.92,13.53-2.78
				c4.58,1.13,8.53,4.31,10.61,8.54c4.22-1.39,8.78-1.94,13.21-1.59c3.75,0.3,8.81,1.47,11.64,5.37c0.8,1.1,1.2,2.18,1.18,3.19
				c-0.03,2.19-1.94,3.79-3.71,4.36C536.53,183.94,535.53,184.04,534.54,184.04z"/>
		</g>
		<g>
			<path class="st1" d="M420.52,140.05l0.08-0.38c0.86-4.14-1.12-8.75-4.71-10.97c-3.59-2.22-8.61-1.93-11.92,0.69l-0.31-0.39
				c3.47-2.74,8.73-3.05,12.49-0.72c3.65,2.26,5.72,6.88,5.01,11.11l1.74-0.41l0.12,0.49L420.52,140.05z"/>
		</g>
		<g>
			<path class="st1" d="M490.9,144.47l-0.36-0.35l1.98-2.27c2.51-3.52,3.87-8.43,4.13-14.9c0.15-3.77,0.03-8.6-2.26-12.54
				c-2.48-4.27-7.39-7.27-13.48-8.21c-9.1-1.41-18.63,1.92-24.88,8.69l-0.37-0.34c6.35-6.89,16.05-10.28,25.32-8.84
				c6.24,0.97,11.28,4.05,13.84,8.45c2.35,4.06,2.48,8.98,2.33,12.81c-0.25,6.42-1.58,11.34-4.04,14.91l0.03,0.02l-0.22,0.25
				C492.31,143.01,491.63,143.77,490.9,144.47z"/>
		</g>
		<g>
			<path class="st0" d="M505.15,187.04l-0.5-0.04c0.31-3.37-1.23-6.86-3.92-8.91c-2.69-2.05-6.47-2.6-9.63-1.4
				c-0.16,0.06-0.32,0.12-0.48,0.19c-1.05,0.42-2.23,0.89-3.33,0.4c-0.48-0.21-0.84-0.57-1.19-0.92c-0.11-0.11-0.22-0.22-0.34-0.33
				c-2.04-1.88-5.65-2.02-8.39-0.33c-2.26,1.39-4.05,3.84-5.33,7.26l-0.47-0.18c1.32-3.53,3.18-6.06,5.54-7.51
				c2.55-1.57,6.46-1.95,8.99,0.38c0.12,0.11,0.24,0.23,0.35,0.34c0.33,0.33,0.65,0.65,1.04,0.82c0.89,0.4,1.93-0.01,2.94-0.41
				c0.17-0.07,0.33-0.13,0.49-0.19c3.32-1.25,7.29-0.67,10.11,1.47C503.86,179.83,505.47,183.5,505.15,187.04z"/>
		</g>
		<g>
			<path class="st0" d="M493.91,160.22c-0.8-6.12-5.77-11.48-11.8-12.76c-4.66-0.98-13.46-1.09-17.53,1.81
				c-0.54,0.38-0.97,0.8-1.3,1.27c-0.29,1.69-0.68,3.24-1.1,4.6l-0.49-0.1l0.33-2.66c0.09-0.74,0.35-1.42,0.78-2.04
				c0.7-4.13,0.79-9.05-0.93-13.86c-2.24-6.25-7.41-11-13.19-12.12c-6.39-1.23-13.13,2.4-15.04,8.08l-0.47-0.16
				c1.99-5.91,9-9.68,15.61-8.41c5.95,1.14,11.27,6.03,13.56,12.44c1.64,4.59,1.67,9.26,1.09,13.28c0.25-0.25,0.54-0.5,0.86-0.73
				c4.2-2.99,13.17-2.89,17.92-1.89c5.65,1.19,10.39,5.86,11.85,11.43l0.46,0.03l-0.12,1.77L493.91,160.22z"/>
		</g>
		<g>
			<path class="st0" d="M377.67,157.01c-1.89-5.31-2.16-11.23-0.77-16.69c1.41-5.54,5.59-10.97,10.96-10.97c0.18,0,0.35,0,0.53,0.02
				c4.95,0.33,8.33,4.96,10.73,8.96l-0.43,0.26c-2.33-3.89-5.62-8.4-10.33-8.72c-5.33-0.34-9.57,5.05-10.97,10.58
				c-1.37,5.36-1.1,11.19,0.76,16.4L377.67,157.01z"/>
		</g>
		<g>
			<path class="st0" d="M434.65,196.97c-1.85,0-3.69-0.18-5.5-0.64c-1.34-0.34-2.12-0.89-2.39-1.69c-0.25-0.72-0.01-1.49,0.26-2.15
				c3.45-8.54,13.83-13.54,22.66-10.94l-0.14,0.48c-8.6-2.54-18.7,2.34-22.05,10.65c-0.24,0.6-0.44,1.24-0.25,1.8
				c0.21,0.62,0.88,1.07,2.04,1.37c5.16,1.31,10.6,0.3,15.87-0.67c0.72-0.13,1.45-0.27,2.17-0.4c12.21-2.17,24.64-2.52,36.96-1.05
				l-0.06,0.5c-12.27-1.47-24.65-1.11-36.81,1.05c-0.72,0.13-1.44,0.26-2.16,0.4C441.75,196.31,438.18,196.97,434.65,196.97z"/>
		</g>
		<g>
			<path class="st2" d="M333.44,166.65c-1.21,0-2.42-0.11-3.6-0.32c-1.87-0.34-3-1.08-3.38-2.19c-0.26-0.77-0.09-1.59,0.08-2.22
				c1.63-5.84,8.15-9.77,14.08-8.55c-0.22-5.09,1.38-11.66,6.61-13.91c2.14-0.92,4.73-1.04,7.69-0.34c5.11,1.21,9.61,4.5,12.03,8.79
				c2.57,4.55,2.74,10.34,0.44,14.74l-0.44-0.23c2.22-4.25,2.05-9.85-0.44-14.26c-2.35-4.17-6.73-7.37-11.71-8.55
				c-2.85-0.67-5.34-0.57-7.38,0.31c-5.12,2.2-6.59,8.79-6.29,13.75l0.02,0.34l-0.33-0.08c-5.76-1.38-12.21,2.42-13.8,8.12
				c-0.16,0.56-0.31,1.29-0.09,1.93c0.32,0.93,1.33,1.55,3,1.86c3.61,0.66,7.47,0.28,10.88-1.09l0.19,0.46
				C338.62,166.16,336.02,166.65,333.44,166.65z"/>
		</g>
		<g>
			<path class="st2" d="M400.76,172.65c-0.14,0-0.28-0.01-0.42-0.03l-1.37-0.16l3.59-0.88c0.23-0.15,0.44-0.33,0.65-0.53
				c1.03-1.03,1.59-2.6,1.42-3.98c-0.36-2.97-2.99-5.09-4.52-6.09c-4.29-2.79-10.81-3.36-13.88,0.59l-0.17,0.22l-0.2-0.19
				c-2.56-2.39-6.73-1.76-9.37,0.04c-2.91,2-4.73,5.22-6.33,8.07l-0.44-0.25c1.55-2.75,3.48-6.17,6.48-8.23
				c2.73-1.87,7.03-2.53,9.79-0.17c3.34-4,9.88-3.41,14.38-0.49c1.96,1.28,4.38,3.43,4.75,6.45c0.19,1.53-0.43,3.26-1.56,4.4
				c-0.19,0.19-0.38,0.35-0.58,0.5l0.02,0.09l-0.24,0.06C402.14,172.44,401.46,172.65,400.76,172.65z"/>
		</g>
		<g>
			<path class="st2" d="M327.21,169.16c-0.38,0-0.77-0.07-1.17-0.21c-1.33-0.47-2.61-1.73-3.26-3.2c-1.42-3.19-0.94-7.2,1.19-9.96
				c2.07-2.69,5.66-4.18,9.03-3.76c0-4.8,3.63-9.46,8.55-10.92c4.59-1.37,10.1-0.01,14.05,3.45c3.54,3.1,5.93,7.74,6.74,13.08
				l-0.49,0.07c-0.79-5.22-3.12-9.76-6.57-12.78c-3.82-3.35-9.15-4.66-13.58-3.35c-4.82,1.43-8.34,6.04-8.19,10.73l0.01,0.3
				l-0.3-0.05c-3.27-0.52-6.83,0.9-8.85,3.53c-2.02,2.63-2.47,6.43-1.13,9.46c0.6,1.35,1.76,2.5,2.97,2.93
				c0.76,0.27,1.48,0.24,2.13-0.09l0.23,0.45C328.14,169.05,327.68,169.16,327.21,169.16z"/>
		</g>
	</g>
</g>
</svg>
